<?xml version="1.0" encoding="UTF-8" standalone="no"?>
<!-- Created with Inkscape (http://www.inkscape.org/) -->

<svg
   xmlns:dc="http://purl.org/dc/elements/1.1/"
   xmlns:cc="http://creativecommons.org/ns#"
   xmlns:rdf="http://www.w3.org/1999/02/22-rdf-syntax-ns#"
   xmlns:svg="http://www.w3.org/2000/svg"
   xmlns="http://www.w3.org/2000/svg"
   xmlns:sodipodi="http://sodipodi.sourceforge.net/DTD/sodipodi-0.dtd"
   xmlns:inkscape="http://www.inkscape.org/namespaces/inkscape"
   version="1.1"
   id="svg1344"
   width="13.654095"
   height="17.82526"
   viewBox="0 0 13.654095 17.82526"
   sodipodi:docname="basthon.svg"
   inkscape:version="0.92.5 (2060ec1f9f, 2020-04-08)">
  <metadata
     id="metadata1350">
    <rdf:RDF>
      <cc:Work
         rdf:about="">
        <dc:format>image/svg+xml</dc:format>
        <dc:type
           rdf:resource="http://purl.org/dc/dcmitype/StillImage" />
        <dc:title></dc:title>
      </cc:Work>
    </rdf:RDF>
  </metadata>
  <defs
     id="defs1348" />
  <sodipodi:namedview
     pagecolor="#ffffff"
     bordercolor="#666666"
     borderopacity="1"
     objecttolerance="10"
     gridtolerance="10"
     guidetolerance="10"
     inkscape:pageopacity="0"
     inkscape:pageshadow="2"
     inkscape:window-width="3096"
     inkscape:window-height="1672"
     id="namedview1346"
     showgrid="false"
     fit-margin-top="0"
     fit-margin-left="0"
     fit-margin-right="0"
     fit-margin-bottom="0"
     inkscape:zoom="51.653134"
     inkscape:cx="11.424115"
     inkscape:cy="8.8619912"
     inkscape:window-x="104"
     inkscape:window-y="54"
     inkscape:window-maximized="1"
     inkscape:current-layer="svg1344" />
  <path
     style="fill:#92badd;fill-opacity:1;stroke:#92badd;stroke-width:0.30000001;stroke-linecap:round;stroke-linejoin:round;stroke-miterlimit:4;stroke-dasharray:none;stroke-opacity:1"
     d="m 1.0323082,5.7613321 c 2.0460295,-1.0782267 3.6283961,-2.0666352 6.2358976,-2.231795 2.6075016,-0.1651598 5.5622532,2.145074 6.2358972,2.363077 0,0 -1.302869,-4.1632372 -6.2030769,-4.2338463 -4.6324076,-0.06675 -6.2687179,4.1025643 -6.2687179,4.1025643 z"
     id="path1354"
     inkscape:connector-curvature="0"
     sodipodi:nodetypes="czcsc" />
  <path
     style="fill:#92badd;fill-opacity:1;stroke:#92badd;stroke-width:0.30000001;stroke-linecap:round;stroke-linejoin:round;stroke-miterlimit:4;stroke-dasharray:none;stroke-opacity:1"
     d="m 13.372819,11.389656 c -2.046029,1.078227 -3.6283964,2.066635 -6.2358979,2.231795 -2.6075016,0.16516 -5.5622535,-2.145074 -6.23589742,-2.363077 0,0 1.30286892,4.163237 6.20307712,4.233846 4.6324082,0.06675 6.2687182,-4.102564 6.2687182,-4.102564 z"
     id="path1354-3"
     inkscape:connector-curvature="0"
     sodipodi:nodetypes="czcsc" />
  <path
     style="opacity:1;fill:#92badd;fill-opacity:1;stroke:#92badd;stroke-width:0.30000001;stroke-linecap:round;stroke-linejoin:round;stroke-miterlimit:4;stroke-dasharray:none;stroke-dashoffset:0;stroke-opacity:1"
     id="path1371"
     sodipodi:type="arc"
     sodipodi:cx="12.109488"
     sodipodi:cy="1.0685186"
     sodipodi:rx="0.9011206"
     sodipodi:ry="0.91925931"
     sodipodi:start="5.8183611"
     sodipodi:end="5.8083897"
     d="M 12.915,0.65644625 A 0.9011206,0.91925931 0 0 1 12.515436,1.8892151 0.9011206,0.91925931 0 0 1 11.305999,1.4846828 0.9011206,0.91925931 0 0 1 11.699533,0.24989705 0.9011206,0.91925931 0 0 1 12.910932,0.64827311"
     sodipodi:open="true" />
  <path
     style="opacity:1;fill:#92badd;fill-opacity:1;stroke:#92badd;stroke-width:0.30000001;stroke-linecap:round;stroke-linejoin:round;stroke-miterlimit:4;stroke-dasharray:none;stroke-dashoffset:0;stroke-opacity:1"
     id="path1371-6"
     sodipodi:type="arc"
     sodipodi:cx="2.0061622"
     sodipodi:cy="16.325853"
     sodipodi:rx="1.3497294"
     sodipodi:ry="1.3497227"
     sodipodi:start="5.8183611"
     sodipodi:end="5.8083897"
     d="M 3.2126858,15.720819 A 1.3497294,1.3497227 0 0 1 2.6142053,17.530859 1.3497294,1.3497227 0 0 1 0.80267004,16.936896 1.3497294,1.3497227 0 0 1 1.3921188,15.123894 1.3497294,1.3497227 0 0 1 3.2065929,15.708819"
     sodipodi:open="true" />
  <path
     style="opacity:1;fill:#92badd;fill-opacity:1;stroke:#92badd;stroke-width:0.30000001;stroke-linecap:round;stroke-linejoin:round;stroke-miterlimit:4;stroke-dasharray:none;stroke-dashoffset:0;stroke-opacity:1"
     id="path1371-6-7"
     sodipodi:type="arc"
     sodipodi:cx="0.99993593"
     sodipodi:cy="2.4922972"
     sodipodi:rx="0.85031575"
     sodipodi:ry="0.85294276"
     sodipodi:start="5.8183611"
     sodipodi:end="5.8083897"
     d="M 1.7600335,2.1099522 A 0.85031575,0.85294276 0 0 1 1.3829969,3.2537875 0.85031575,0.85294276 0 0 1 0.24174818,2.8784387 0.85031575,0.85294276 0 0 1 0.61309485,1.732732 0.85031575,0.85294276 0 0 1 1.756195,2.1023687"
     sodipodi:open="true" />
</svg>
